<?xml version="1.0" encoding="utf-8"?>
<!-- Generator: Adobe Illustrator 24.3.0, SVG Export Plug-In . SVG Version: 6.00 Build 0)  -->
<svg version="1.1" id="Layer_1" xmlns="http://www.w3.org/2000/svg" xmlns:xlink="http://www.w3.org/1999/xlink" x="0px" y="0px"
	 viewBox="0 0 841.89 595.28" style="enable-background:new 0 0 841.89 595.28;" xml:space="preserve">
<style type="text/css">
	.st0{fill:#053541;}
	.st1{fill-rule:evenodd;clip-rule:evenodd;fill:#053541;}
</style>
<g>
	<path class="st0" d="M97.85,355.65V249.13h24.54c17.95,0,26.93,10.42,26.93,31.27c0,6.28-0.97,11.62-2.92,16.01
		c-1.94,4.39-5.36,7.93-10.25,10.62l16.46,48.62h-16.16l-14.21-45.48h-9.13v45.48H97.85z M113.11,263.49v33.21h8.68
		c2.69,0,4.84-0.37,6.43-1.12c1.59-0.75,2.84-1.82,3.74-3.22c0.8-1.4,1.35-3.12,1.65-5.16c0.3-2.04,0.45-4.41,0.45-7.11
		c0-2.69-0.15-5.06-0.45-7.11s-0.9-3.82-1.79-5.31c-1.9-2.79-5.49-4.19-10.77-4.19H113.11z"/>
	<path class="st0" d="M177.14,355.65l23.79-106.52h12.72l23.79,106.52h-15.26l-4.49-22.89h-20.8l-4.49,22.89H177.14z M214.84,318.4
		l-7.48-38.6h-0.3l-7.48,38.6H214.84z"/>
	<path class="st0" d="M267.8,355.65V249.13h15.26v106.52H267.8z"/>
	<path class="st0" d="M319.71,355.65V249.13h14.66l23.04,64.18h0.3v-64.18h15.26v106.52h-14.36l-23.34-64.03h-0.3v64.03H319.71z"/>
	<path class="st0" d="M423.38,355.65v-45.03l-20.94-61.49h16.16l12.27,42.34h0.3l12.27-42.34h16.16l-20.94,61.49v45.03H423.38z"/>
	<path class="st0" d="M489.66,355.65V249.13h22.59c8.78,0,15.43,2.39,19.97,7.18c4.54,4.79,6.81,11.57,6.81,20.35v49.82
		c0,9.97-2.42,17.33-7.26,22.07c-4.84,4.74-11.8,7.11-20.87,7.11H489.66z M504.92,263.49v77.79h7.03c4.29,0,7.33-1.07,9.13-3.22
		c1.79-2.14,2.69-5.51,2.69-10.1v-51.31c0-4.19-0.85-7.43-2.54-9.72c-1.7-2.29-4.79-3.44-9.28-3.44H504.92z"/>
	<path class="st0" d="M567.15,355.65l23.79-106.52h12.72l23.79,106.52h-15.26l-4.49-22.89H586.9l-4.49,22.89H567.15z M604.85,318.4
		l-7.48-38.6h-0.3l-7.48,38.6H604.85z"/>
	<path class="st0" d="M663.35,355.65v-45.03l-20.94-61.49h16.16l12.27,42.34h0.3l12.27-42.34h16.16l-20.94,61.49v45.03H663.35z"/>
	<path class="st0" d="M778.99,279.8h-15.26v-3.44c0-3.49-0.82-6.51-2.47-9.05c-1.65-2.54-4.41-3.81-8.3-3.81
		c-2.09,0-3.79,0.4-5.09,1.2c-1.3,0.8-2.34,1.8-3.14,2.99c-0.8,1.3-1.35,2.77-1.65,4.41c-0.3,1.65-0.45,3.37-0.45,5.16
		c0,2.09,0.08,3.84,0.22,5.24c0.15,1.4,0.52,2.64,1.12,3.74c0.6,1.1,1.47,2.05,2.62,2.84c1.15,0.8,2.72,1.6,4.71,2.39l11.67,4.64
		c3.39,1.3,6.13,2.82,8.23,4.56c2.1,1.75,3.74,3.77,4.94,6.06c1.1,2.39,1.84,5.11,2.24,8.15c0.4,3.04,0.6,6.51,0.6,10.4
		c0,4.49-0.45,8.65-1.35,12.49c-0.9,3.84-2.34,7.11-4.34,9.8c-2.1,2.79-4.84,4.99-8.23,6.58c-3.39,1.59-7.53,2.39-12.42,2.39
		c-3.69,0-7.13-0.65-10.32-1.94c-3.19-1.29-5.94-3.09-8.23-5.39c-2.29-2.29-4.11-4.96-5.46-8s-2.02-6.36-2.02-9.95v-5.68h15.26v4.79
		c0,2.79,0.82,5.31,2.47,7.55c1.65,2.24,4.41,3.37,8.3,3.37c2.59,0,4.61-0.37,6.06-1.12c1.44-0.75,2.57-1.82,3.37-3.22
		c0.8-1.4,1.27-3.07,1.42-5.01c0.15-1.95,0.23-4.11,0.23-6.51c0-2.79-0.1-5.09-0.3-6.88c-0.2-1.79-0.6-3.24-1.2-4.34
		c-0.7-1.1-1.62-1.99-2.77-2.69c-1.15-0.7-2.67-1.44-4.56-2.24l-10.92-4.49c-6.58-2.69-10.99-6.26-13.24-10.7
		c-2.24-4.44-3.37-10-3.37-16.68c0-3.99,0.55-7.78,1.65-11.37c1.1-3.59,2.74-6.68,4.94-9.28c2.1-2.59,4.76-4.66,8-6.21
		c3.24-1.55,7.11-2.32,11.59-2.32c3.79,0,7.26,0.7,10.4,2.09c3.14,1.4,5.86,3.24,8.15,5.54c4.59,4.79,6.88,10.27,6.88,16.46V279.8z"
		/>
</g>
<g>
	<path class="st0" d="M213.05,430.8h11c1.19,0,2.35,0.12,3.46,0.34c1.11,0.3,2.24,0.92,3.38,1.85c0.96,0.7,1.73,1.7,2.33,3.01
		c0.62,1.26,0.94,2.75,0.94,4.47c0,2.32-0.79,4.43-2.38,6.34c-1.63,2.01-4,3.04-7.13,3.09h-7v12.23h-4.6V430.8z M217.65,445.44h6.82
		c1.71-0.03,3-0.58,3.86-1.64c0.82-1.04,1.23-2.19,1.23-3.45c0-1.05-0.17-1.94-0.5-2.66c-0.35-0.65-0.83-1.16-1.46-1.53
		c-0.95-0.62-2.05-0.91-3.3-0.88h-6.66V445.44z"/>
	<path class="st0" d="M238.76,439.83h4.34v13.3c0,1.51,0.41,2.68,1.23,3.53c0.81,0.85,1.83,1.27,3.08,1.27
		c1.25,0,2.27-0.42,3.06-1.27c0.81-0.85,1.21-2.02,1.21-3.53v-13.3h4.34v22.31h-4.34v-2.39h-0.08c-1.43,1.76-3.29,2.64-5.6,2.64
		c-1.79-0.03-3.41-0.7-4.85-2.02c-1.57-1.29-2.36-3.19-2.39-5.71V439.83z"/>
	<path class="st0" d="M263.04,455.33c1.77,1.91,4.05,2.86,6.85,2.86c1.25,0,2.28-0.25,3.07-0.75c0.79-0.5,1.19-1.2,1.19-2.11
		c0-0.8-0.24-1.36-0.71-1.68c-0.49-0.33-1.13-0.51-1.94-0.54l-3.84-0.34c-1.82-0.17-3.3-0.8-4.44-1.89
		c-1.17-1.06-1.77-2.54-1.79-4.45c0.03-2.29,0.81-4.01,2.35-5.16c1.5-1.15,3.4-1.72,5.71-1.72c1,0,1.9,0.07,2.69,0.19
		c0.79,0.14,1.54,0.34,2.23,0.6c1.33,0.56,2.53,1.31,3.58,2.26l-2.69,3.24c-0.84-0.62-1.72-1.14-2.65-1.54
		c-0.92-0.36-1.98-0.54-3.17-0.54c-1.36,0-2.32,0.25-2.86,0.75c-0.57,0.5-0.86,1.15-0.86,1.94c-0.03,0.5,0.19,0.94,0.65,1.31
		c0.42,0.42,1.15,0.68,2.21,0.8l3.59,0.28c2.25,0.17,3.88,0.88,4.88,2.11c0.93,1.21,1.4,2.73,1.4,4.58
		c-0.03,2.17-0.88,3.84-2.56,5.01c-1.67,1.21-3.8,1.82-6.39,1.85c-3.53,0-6.7-1.33-9.52-4L263.04,455.33z"/>
	<path class="st0" d="M283.54,430.8h4.34v11.39h0.08c1.43-1.76,3.3-2.64,5.62-2.64c1.79,0,3.43,0.65,4.91,1.96
		c1.47,1.32,2.24,3.25,2.31,5.8v14.83h-4.34v-13.3c0-1.56-0.4-2.75-1.21-3.57c-0.79-0.83-1.81-1.25-3.06-1.25
		c-1.25,0-2.28,0.42-3.08,1.25c-0.82,0.82-1.23,2.01-1.23,3.57v13.3h-4.34V430.8z"/>
	<path class="st0" d="M307.31,430.8h4.34v4.47h-4.34V430.8z M307.31,439.83h4.34v22.31h-4.34V439.83z"/>
	<path class="st0" d="M317.74,439.83h4.34v2.36h0.08c1.43-1.76,3.3-2.64,5.62-2.64c1.79,0,3.42,0.65,4.91,1.96
		c1.47,1.32,2.24,3.25,2.31,5.8v14.83h-4.34v-13.3c0-1.56-0.4-2.75-1.21-3.57c-0.79-0.83-1.81-1.25-3.06-1.25s-2.28,0.42-3.08,1.25
		c-0.82,0.82-1.23,2.01-1.23,3.57v13.3h-4.34V439.83z"/>
	<path class="st0" d="M353.53,459.81c-1.43,1.67-3.29,2.53-5.57,2.59c-1.4-0.03-2.57-0.34-3.49-0.93c-0.97-0.56-1.71-1.16-2.23-1.81
		c-0.57-0.73-0.98-1.63-1.23-2.69c-0.26-1.05-0.4-3.04-0.4-5.98c0-3,0.13-5.03,0.4-6.09c0.25-1.05,0.66-1.93,1.23-2.65
		c0.51-0.7,1.25-1.33,2.23-1.88c0.93-0.53,2.09-0.81,3.49-0.83c2.15,0,4.01,0.88,5.57,2.64v-2.36h4.34v21.78
		c-0.06,3.35-0.99,5.82-2.81,7.39c-1.83,1.62-4.02,2.43-6.57,2.43c-2.92-0.06-5.42-1.3-7.48-3.73l3.37-2.77
		c0.55,0.53,1.19,0.99,1.91,1.36c0.74,0.42,1.5,0.64,2.29,0.67c1.48,0,2.68-0.42,3.58-1.27c0.89-0.86,1.34-2.06,1.37-3.58V459.81z
		 M344.95,451.01c0,1.71,0.05,2.89,0.17,3.54c0.1,0.68,0.33,1.24,0.69,1.68c0.29,0.4,0.74,0.77,1.33,1.1c0.57,0.4,1.28,0.6,2.12,0.6
		c0.85,0,1.56-0.2,2.12-0.6c0.57-0.33,1-0.7,1.29-1.1c0.36-0.44,0.6-1.01,0.73-1.68c0.08-0.65,0.13-1.83,0.13-3.54
		c0-1.74-0.04-2.95-0.13-3.62c-0.12-0.68-0.37-1.22-0.73-1.64c-0.29-0.4-0.72-0.8-1.29-1.19c-0.57-0.33-1.28-0.51-2.12-0.54
		c-0.85,0.03-1.55,0.21-2.12,0.54c-0.6,0.39-1.04,0.78-1.33,1.19c-0.36,0.42-0.59,0.96-0.69,1.64
		C345,448.06,344.95,449.27,344.95,451.01z"/>
	<path class="st0" d="M375.04,433.03h4.34v6.79h3.17v3.44h-3.17v13.01c-0.03,1.13,0.49,1.68,1.54,1.66h1.62v4.21h-2.27
		c-1.52,0-2.77-0.49-3.74-1.46c-1-0.93-1.5-2.28-1.5-4.04v-13.38h-2.18v-3.44h2.18V433.03z"/>
	<path class="st0" d="M387.02,430.8h4.34v11.39h0.08c1.43-1.76,3.3-2.64,5.62-2.64c1.79,0,3.42,0.65,4.91,1.96
		c1.47,1.32,2.24,3.25,2.31,5.8v14.83h-4.34v-13.3c0-1.56-0.4-2.75-1.21-3.57c-0.79-0.83-1.81-1.25-3.06-1.25s-2.28,0.42-3.08,1.25
		c-0.82,0.82-1.23,2.01-1.23,3.57v13.3h-4.34V430.8z"/>
	<path class="st0" d="M413.92,452.68c0,1.79,0.5,3.15,1.5,4.09c0.93,0.95,2.15,1.42,3.67,1.42c1.76,0,3.34-0.72,4.73-2.17l3.14,2.77
		c-2.21,2.44-4.8,3.64-7.78,3.61c-1.14,0-2.25-0.17-3.33-0.52c-0.54-0.19-1.07-0.44-1.58-0.75c-0.54-0.27-1.05-0.61-1.52-1.01
		c-0.92-0.83-1.66-1.99-2.23-3.48c-0.63-1.43-0.94-3.3-0.94-5.59c0-2.21,0.27-4.04,0.81-5.5c0.54-1.49,1.23-2.67,2.08-3.53
		c0.86-0.87,1.82-1.5,2.89-1.89c1.05-0.39,2.1-0.58,3.12-0.58c2.47,0.03,4.56,0.87,6.27,2.52c1.73,1.68,2.62,3.98,2.64,6.92v3.69
		H413.92z M423.06,448.99c-0.06-1.74-0.51-3.06-1.36-3.95c-0.83-0.85-1.91-1.27-3.21-1.27s-2.38,0.42-3.21,1.27
		c-0.82,0.89-1.27,2.21-1.36,3.95H423.06z"/>
	<path class="st0" d="M464.09,453.38c-0.67,2.9-1.94,5.14-3.81,6.7c-1.93,1.55-4.21,2.32-6.85,2.32c-2.39-0.06-4.38-0.66-5.97-1.81
		c-1.62-1.1-2.8-2.38-3.54-3.83c-0.22-0.47-0.42-0.92-0.6-1.35c-0.17-0.44-0.31-1-0.42-1.68c-0.21-1.26-0.31-3.68-0.31-7.27
		c0-3.64,0.1-6.08,0.31-7.31c0.22-1.23,0.56-2.23,1.02-2.99c0.74-1.45,1.91-2.74,3.54-3.87c1.6-1.15,3.59-1.73,5.97-1.76
		c2.93,0.03,5.32,0.92,7.16,2.68c1.85,1.77,3.01,3.97,3.5,6.59h-4.88c-0.37-1.26-1.06-2.34-2.04-3.23
		c-1.03-0.85-2.28-1.29-3.75-1.31c-1.08,0.03-2.02,0.25-2.79,0.67c-0.79,0.43-1.43,0.97-1.92,1.62c-0.6,0.67-0.99,1.54-1.19,2.61
		c-0.22,1.12-0.33,3.22-0.33,6.31s0.11,5.18,0.33,6.27c0.19,1.09,0.59,1.98,1.19,2.65c0.49,0.65,1.13,1.17,1.92,1.57
		c0.78,0.47,1.71,0.71,2.8,0.71c2.59,0,4.52-1.43,5.8-4.29H464.09z"/>
	<path class="st0" d="M466.63,450.96c0-2.35,0.19-4.16,0.56-5.43c0.39-1.23,0.99-2.27,1.79-3.12c0.6-0.74,1.43-1.4,2.5-1.99
		c1.05-0.56,2.41-0.85,4.06-0.88c1.71,0.03,3.09,0.32,4.14,0.88c1.04,0.59,1.85,1.25,2.42,2c0.86,0.84,1.47,1.88,1.83,3.12
		c0.35,1.26,0.52,3.07,0.52,5.42c0,2.35-0.17,4.14-0.52,5.37c-0.36,1.23-0.97,2.3-1.83,3.2c-0.28,0.33-0.62,0.65-1.02,0.97
		c-0.36,0.36-0.83,0.67-1.39,0.92c-1.05,0.62-2.44,0.94-4.14,0.97c-1.65-0.03-3-0.35-4.06-0.97c-1.07-0.56-1.9-1.19-2.5-1.89
		c-0.81-0.9-1.4-1.97-1.79-3.2C466.82,455.1,466.63,453.31,466.63,450.96z M480.11,451.01c0-1.6-0.07-2.76-0.21-3.49
		c-0.14-0.71-0.42-1.32-0.86-1.85c-0.32-0.5-0.79-0.9-1.42-1.19c-0.6-0.3-1.29-0.45-2.09-0.45c-0.74,0-1.42,0.15-2.05,0.45
		c-0.6,0.29-1.08,0.68-1.46,1.19c-0.38,0.53-0.65,1.15-0.81,1.85c-0.17,0.73-0.25,1.88-0.25,3.45c0,1.55,0.08,2.69,0.25,3.41
		c0.17,0.73,0.44,1.38,0.81,1.94c0.38,0.43,0.86,0.81,1.46,1.14c0.63,0.32,1.31,0.47,2.05,0.47c0.79,0,1.49-0.16,2.09-0.47
		c0.63-0.33,1.1-0.71,1.42-1.14c0.43-0.56,0.72-1.21,0.86-1.94C480.04,453.65,480.11,452.53,480.11,451.01z"/>
	<path class="st0" d="M489.54,439.83h4.35v2.36h0.08c1.48-1.76,3.42-2.64,5.83-2.64c1.55,0.03,2.79,0.29,3.74,0.8
		c0.93,0.56,1.78,1.27,2.56,2.13c1.75-1.98,4.09-2.95,7.03-2.92c1.85,0,3.54,0.65,5.07,1.96c1.52,1.32,2.31,3.25,2.36,5.8v14.83
		h-4.34v-13.3c0-1.56-0.42-2.75-1.25-3.57c-0.83-0.83-1.9-1.25-3.22-1.25c-1.31,0-2.39,0.42-3.24,1.25
		c-0.86,0.82-1.29,2.01-1.29,3.57v13.3h-4.34v-13.3c0-1.56-0.42-2.75-1.25-3.57c-0.85-0.83-1.93-1.25-3.24-1.25
		c-1.31,0-2.38,0.42-3.21,1.25c-0.88,0.82-1.31,2.01-1.31,3.57v13.3h-4.34V439.83z"/>
	<path class="st0" d="M527.92,443.27h-2.19v-3.44h2.19v-2.95c0-2.12,0.57-3.68,1.71-4.69c1.11-0.93,2.5-1.4,4.18-1.4h2.81v4.21
		h-2.48c-1.31-0.04-1.94,0.58-1.88,1.86v2.96h4.36v3.44h-4.36v18.87h-4.34V443.27z"/>
	<path class="st0" d="M538.39,450.96c0-2.35,0.19-4.16,0.56-5.43c0.39-1.23,0.99-2.27,1.79-3.12c0.6-0.74,1.43-1.4,2.5-1.99
		c1.05-0.56,2.41-0.85,4.06-0.88c1.71,0.03,3.09,0.32,4.14,0.88c1.04,0.59,1.85,1.25,2.42,2c0.86,0.84,1.47,1.88,1.83,3.12
		c0.35,1.26,0.52,3.07,0.52,5.42c0,2.35-0.17,4.14-0.52,5.37c-0.36,1.23-0.97,2.3-1.83,3.2c-0.28,0.33-0.62,0.65-1.02,0.97
		c-0.36,0.36-0.83,0.67-1.39,0.92c-1.05,0.62-2.44,0.94-4.14,0.97c-1.65-0.03-3-0.35-4.06-0.97c-1.07-0.56-1.9-1.19-2.5-1.89
		c-0.81-0.9-1.4-1.97-1.79-3.2C538.57,455.1,538.39,453.31,538.39,450.96z M551.86,451.01c0-1.6-0.07-2.76-0.21-3.49
		c-0.14-0.71-0.42-1.32-0.86-1.85c-0.32-0.5-0.79-0.9-1.42-1.19c-0.6-0.3-1.29-0.45-2.09-0.45c-0.74,0-1.42,0.15-2.05,0.45
		c-0.6,0.29-1.08,0.68-1.46,1.19c-0.38,0.53-0.65,1.15-0.81,1.85c-0.17,0.73-0.25,1.88-0.25,3.45c0,1.55,0.08,2.69,0.25,3.41
		c0.17,0.73,0.44,1.38,0.81,1.94c0.38,0.43,0.86,0.81,1.46,1.14c0.63,0.32,1.31,0.47,2.05,0.47c0.79,0,1.49-0.16,2.09-0.47
		c0.63-0.33,1.1-0.71,1.42-1.14c0.43-0.56,0.72-1.21,0.86-1.94C551.79,453.65,551.86,452.53,551.86,451.01z"/>
	<path class="st0" d="M561.47,439.83h4.34v2.36h0.09c1.43-1.76,3.3-2.64,5.62-2.64c1.74,0.03,3.25,0.6,4.54,1.71l-3.17,3.88
		c-0.92-0.75-1.87-1.12-2.85-1.12c-1.11,0-2.06,0.37-2.86,1.12c-0.89,0.73-1.35,1.92-1.38,3.55v13.45h-4.34V439.83z"/>
	<path class="st0" d="M578.86,433.03h4.34v6.79h3.17v3.44h-3.17v13.01c-0.03,1.13,0.48,1.68,1.54,1.66h1.62v4.21h-2.27
		c-1.53,0-2.77-0.49-3.74-1.46c-1-0.93-1.5-2.28-1.5-4.04v-13.38h-2.18v-3.44h2.18V433.03z"/>
	<path class="st0" d="M599.93,458.21l13.76-23.2h-13.65v-4.21h19.27v3.57l-14.25,23.3h14.25v4.47h-19.38V458.21z"/>
	<path class="st0" d="M623.16,450.96c0-2.35,0.19-4.16,0.56-5.43c0.39-1.23,0.99-2.27,1.79-3.12c0.6-0.74,1.43-1.4,2.5-1.99
		c1.05-0.56,2.41-0.85,4.06-0.88c1.71,0.03,3.09,0.32,4.14,0.88c1.04,0.59,1.85,1.25,2.42,2c0.86,0.84,1.47,1.88,1.83,3.12
		c0.35,1.26,0.52,3.07,0.52,5.42c0,2.35-0.17,4.14-0.52,5.37c-0.36,1.23-0.97,2.3-1.83,3.2c-0.28,0.33-0.62,0.65-1.02,0.97
		c-0.36,0.36-0.83,0.67-1.39,0.92c-1.05,0.62-2.44,0.94-4.14,0.97c-1.65-0.03-3-0.35-4.06-0.97c-1.07-0.56-1.9-1.19-2.5-1.89
		c-0.81-0.9-1.4-1.97-1.79-3.2C623.35,455.1,623.16,453.31,623.16,450.96z M636.64,451.01c0-1.6-0.07-2.76-0.21-3.49
		c-0.14-0.71-0.42-1.32-0.86-1.85c-0.32-0.5-0.79-0.9-1.42-1.19c-0.6-0.3-1.29-0.45-2.09-0.45c-0.74,0-1.42,0.15-2.05,0.45
		c-0.6,0.29-1.08,0.68-1.46,1.19c-0.38,0.53-0.65,1.15-0.81,1.85c-0.17,0.73-0.25,1.88-0.25,3.45c0,1.55,0.08,2.69,0.25,3.41
		c0.17,0.73,0.44,1.38,0.81,1.94c0.38,0.43,0.86,0.81,1.46,1.14c0.63,0.32,1.31,0.47,2.05,0.47c0.79,0,1.49-0.16,2.09-0.47
		c0.63-0.33,1.1-0.71,1.42-1.14c0.43-0.56,0.72-1.21,0.86-1.94C636.57,453.65,636.64,452.53,636.64,451.01z"/>
	<path class="st0" d="M646.25,439.83h4.34v2.36h0.08c1.43-1.76,3.3-2.64,5.62-2.64c1.79,0,3.42,0.65,4.91,1.96
		c1.47,1.32,2.24,3.25,2.31,5.8v14.83h-4.34v-13.3c0-1.56-0.4-2.75-1.21-3.57c-0.79-0.83-1.81-1.25-3.06-1.25
		c-1.25,0-2.28,0.42-3.08,1.25c-0.82,0.82-1.23,2.01-1.23,3.57v13.3h-4.34V439.83z"/>
	<path class="st0" d="M673.16,452.68c0,1.79,0.5,3.15,1.5,4.09c0.93,0.95,2.15,1.42,3.67,1.42c1.76,0,3.34-0.72,4.73-2.17l3.14,2.77
		c-2.21,2.44-4.8,3.64-7.78,3.61c-1.14,0-2.25-0.17-3.33-0.52c-0.54-0.19-1.07-0.44-1.58-0.75c-0.54-0.27-1.05-0.61-1.52-1.01
		c-0.92-0.83-1.66-1.99-2.23-3.48c-0.63-1.43-0.94-3.3-0.94-5.59c0-2.21,0.27-4.04,0.81-5.5c0.54-1.49,1.23-2.67,2.08-3.53
		c0.86-0.87,1.82-1.5,2.89-1.89c1.05-0.39,2.1-0.58,3.12-0.58c2.47,0.03,4.56,0.87,6.27,2.52c1.73,1.68,2.62,3.98,2.64,6.92v3.69
		H673.16z M682.3,448.99c-0.06-1.74-0.51-3.06-1.36-3.95c-0.83-0.85-1.91-1.27-3.21-1.27s-2.38,0.42-3.21,1.27
		c-0.82,0.89-1.27,2.21-1.36,3.95H682.3z"/>
</g>
<path class="st1" d="M207.15,235.03c10.9-1.43,27.55-4.97,28.61-5.86c70.08-57.62-8.22,31.69,68.76-31.32
	c32.84-26.88,21.1-15.54,46.9,6.54c9.12,7.82,18.99-12.78,9.6-29.25c-0.27-0.48,19.3-23.9,19.58-24.08
	c-0.24-1.79,7.61,38.67,7.2,10.65c0-0.2,5.65-19.69,9.24-19.92c7.76-0.5-3.28-7.45,10.06-15.79c3.21-2,7.64-12.16,8.42-14.15
	c0.13,0.2,20.4,18.37,23.48,22.11c3.34,4.04,21.12,8.18,20.47,22.38c-0.04,0.78,6.55,14.97,6.13,22.52
	c-0.36,6.46,17.56,14.16,24.12,30.4c8.41,20.81-2.27-19.84,6.33-6.74c7,10.68,11.93,6.82,23.67,24.16c1.3,1.9,4.53,6.39,6.57,8.35
	h1.7c-0.14-0.95-0.71-2.71-1.91-5.55c-1.95-4.61-4.04-21.7-6.59-23.27c-4.38-2.68-21.24-13.64-21.19-17.18
	c0.27-16.95,22.05,12.09,16.3,0.12c-11.03-22.92-6.19-8.03-12.32-11.4c2.79-3.52,0.9-5.8,1.68-7.94c4.21-1.4,4.94,0.63-4.83-8.67
	c-10.39-9.88,3.14-14.41-2.51-26.86c-2.42-5.31,6.44-4.81,12.41,0.04c3.07,2.5,25.62,12.42,40.4,18.52
	c11.72,13.69,25.58,22.82,41.58,27.41c-12.2-6.84-22.22-14.46-30.04-22.88c0.56,0.19,0.97,0.3,1.18,0.34
	c17.31,2.84,13.01,6.01,23.31,11.77c6.61,0.89,20.37,17.34,39.19,22.11c9.95,2.53,20.23,20.38,30.96,28.04
	c20.33,14.48,6.45,7.06,28.68,13.54c2.19,0.64,4.04,1.26,5.67,1.86h7.8c-12.03-4.12-19.55-14.43-28.13-17.4
	c-16.91-5.83-25.52-18.44-36.46-30.8c-11.55-13.06-27.95-11.64-33.94-18.9c-4.12-4.99-28.19-17.8-34.79-19.96
	c-0.17-0.15-0.59-0.24-0.87-0.43c-0.9-0.61-1.34-0.61-1.99-0.97c-1.51-0.86-1.96,0.02-3.59-0.01c-0.61,0-2.67-1.3-2.74-1.48
	c-0.18-0.1-0.98-0.43-1.09-0.52c-1.02-0.86-3.72-2.77-4.99-2.91c-0.9-0.09-2.5-1.17-3.16-1.38c-1.75-0.57-2.28-1.89-4.79-2.32
	c-1.97-0.33-4.5-0.98-6.21-2.02c0.02-0.21-20.88-6.05-22.02-6.35c-0.21-0.04-0.68-0.24-1.3-0.52c-4.38-4.92-11.48-5.92-16.99-9.02
	c-2.54-1.41-12.59,3.94-16.13,6.24c-1.86,1.22-2.86,1.19-4.07,2.22c-0.75,0.63-6.08,2.98-6.94,2.23c-0.75-0.66-0.26-0.43-1.01-0.6
	c-3.11-0.68-2.44,1.09-3.95,1.3c-2.68,0.36-1.54,0.76-2.91,1.24c-2.26,0.81-0.86,1.37-3.23,1.33c-1.82-2.74-6.98-3.5-9.4-7.11
	c-0.53-0.81-5.05-4.84-6.5-4.87c-1.82-0.02-7.01-5.37-9.92-6.33c-0.02-0.01-3.42-2.4-3.6-2.55c-0.02-0.02-2.58-1.15-3.26-1.77
	c-0.92-0.84-4.21-2.19-6.77-2.88c-1.12-0.65-2.25-1.2-3.32-1.46c-3.84-0.94-4.24-3.15-7-1.93c-5.57,2.42-4.33,1.39-10.3,5.29
	c-0.56-0.08-3.68,0.54-3.98,0.84c-1.6,1.54-2.77,3.34-4.55,3.3c-3.19-0.06-2.18,0.64-5.8,2.53c-3.06,1.62-3.67,2.81-7.02,4.2
	c-1.49,0.63-5,3.93-6.48,3.78c-0.89,0.54-2.38-0.68-4.13,2.01c-0.32,0.49-2.29,0.43-4.12,2.73c-0.07,0.1-1.95,1.02-2.47,1.55
	c-3.16,3.24-1.46,1.25-2.89,2.05c-2.01,1.15-4.14,2.41-6.28,3.25c-4.25,1.63-4.07,2.86-6.11,4.07c-2.71,1.6-2.88,2.54-6.35,3.75
	c-1.87,0.66-8.01,5.49-10.04,5.86c-1.95,0.33-9.13,7.07-11.95,8.3c-0.22,0.11-0.9,0.62-1.09,0.8c-4.15,0.5-5.55,3.34-9.11,5.04
	c-1.62,0.77-1.98,1.78-3.99,2.33c-2.85,0.76-6.97,4.97-8.16,5.37c-2.4,0.83-6.29,4.46-8.49,4.25c-0.03-0.01-6.63,3.7-6.81,3.97
	c-0.18,0.25-0.42,0.34-0.41,0.59c-2.43,1.9-0.86-1.44-5.51,4.08c-2.98,3.52-10.7,5.89-15.62,11.35c-1.09,1.22-1.56-1.71-6.97,6.35
	c-4.8,7.15-9.15,6.23-15.21,11.07c-4.53,3.61-7.58,2.05-14.41,7.51c-4.68,3.73-9.85,6.94-15.01,9.69c-2.01,1.08-3.64,3.4-5.65,4.07
	H207.15z"/>
<path class="st1" d="M766.36,388.84c-218.74,5.81-437.92,5.81-656.69,0C328.5,385.51,547.51,385.51,766.36,388.84L766.36,388.84z"/>
<g>
	<path class="st1" d="M736.68,463.95c-12.74-8-22.92-18.5-30.53-31.48C717.8,441.53,727.98,452.03,736.68,463.95L736.68,463.95z"/>
	<path class="st1" d="M702.93,463.95c8.7-11.92,18.88-22.41,30.53-31.48C725.86,445.45,715.67,455.95,702.93,463.95L702.93,463.95z"
		/>
</g>
<g>
	<path class="st1" d="M197.37,463.95c-12.74-8-22.92-18.5-30.53-31.48C178.48,441.53,188.66,452.03,197.37,463.95L197.37,463.95z"/>
	<path class="st1" d="M163.62,463.95c8.7-11.92,18.88-22.41,30.53-31.48C186.54,445.45,176.35,455.95,163.62,463.95L163.62,463.95z"
		/>
</g>
</svg>
